<svg id="Capa_1" enable-background="new 0 0 511.959 511.959" height="512" viewBox="0 0 511.959 511.959" width="512" xmlns="http://www.w3.org/2000/svg"><g><g>
<path d="m374.993 130.095c.045-1.556.061-3.12.046-4.691-.616-64.358-53.067-117.025-117.423-117.89-66.507-.893-120.701 52.751-120.701 119.053 0 1.028.013 2.053.039 3.074.847 33.375-9.946 65.864-28.91 93.341-20.088 29.104-31.809 64.425-31.684 102.494.326 99.493 82.571 180.325 182.056 179.003 98.079-1.304 177.185-81.216 177.185-179.605 0-38.359-12.027-73.906-32.514-103.082-18.863-26.864-29.05-58.885-28.094-91.697z" fill="#bbec6c"/></g><g>
<path d="m435.598 324.871c0 98.388-79.099 178.307-177.187 179.608-4.712.06-9.395-.06-14.017-.35 93.806-5.973 168.032-83.951 168.032-179.258 0-38.359-12.026-73.906-32.516-103.081-18.869-26.863-29.054-58.879-28.094-91.695.04-1.561.06-3.121.04-4.692-.58-61.03-47.773-111.545-107.523-117.337 4.362-.42 8.794-.61 13.287-.55 64.351.861 116.807 53.526 117.417 117.888.02 1.571 0 3.131-.05 4.692-.95 32.816 9.234 64.832 28.104 91.695 20.481 29.173 32.507 64.721 32.507 103.08z" fill="#a2e62e"/></g><g><g>
<circle cx="255.98" cy="325.653" fill="#d77f4a" r="89.899"/></g><g>
<path d="m345.875 325.65c0 49.65-40.246 89.908-89.896 89.908-22.328 0-42.767-8.149-58.481-21.633 10.098 3.922 21.073 6.078 32.56 6.078 49.65 0 89.896-40.258 89.896-89.908 0-27.322-12.181-51.781-31.415-68.262 33.559 13.045 57.336 45.654 57.336 83.817z" fill="#c86d36"/></g><g>
<path d="m409.228 217.48c-19.158-27.284-26.735-57.746-26.68-90.695.007-4.144-3.346-7.51-7.504-7.517-4.138 0-7.497 3.351-7.504 7.49-.002 1.042-.018 2.082-.048 3.118-.993 34.098 9.192 67.373 29.454 96.228 20.379 29.023 31.151 63.177 31.151 98.77 0 45.568-17.632 88.518-49.648 120.937-31.987 32.39-74.651 50.56-120.133 51.165-46.07.629-89.757-16.992-122.882-49.572-33.105-32.561-51.42-75.871-51.571-121.952-.116-35.307 10.381-69.266 30.357-98.207 19.233-27.865 30.371-60.908 30.367-94.873-.003-32.507 9.353-61.847 33.043-85.221 21.411-21.126 49.773-32.54 79.886-32.133 24.043.322 46.895 8.272 66.086 22.988 18.587 14.254 32.519 34.338 39.227 56.553 1.199 3.967 5.384 6.21 9.352 5.014 3.968-1.198 6.212-5.385 5.014-9.353-16.048-53.146-64.53-89.461-119.479-90.208-70.364-.957-130.041 59.659-128.264 129.821.783 30.871-8.755 61.608-27.585 88.888-21.721 31.472-33.137 68.396-33.011 106.779.247 75.152 47.16 144.27 116.679 172.718 11.299 4.624 23.056 8.119 35.045 10.424 57.776 11.11 118.729-6.047 162.148-46.101 2.181-2.011 4.314-4.074 6.398-6.185 34.808-35.246 53.978-81.941 53.978-131.482 0-38.695-11.714-75.831-33.876-107.394z"/>
<path d="m174.076 287.78c-3.894-1.421-8.201.584-9.622 4.476-3.9 10.689-5.878 21.925-5.878 33.397 0 53.708 43.695 97.403 97.403 97.403s97.403-43.695 97.403-97.403-43.695-97.403-97.403-97.403c-27.304 0-53.529 11.571-71.949 31.746-2.794 3.061-2.578 7.807.483 10.601 3.061 2.795 7.806 2.579 10.601-.482 15.584-17.068 37.769-26.858 60.866-26.858 45.433 0 82.396 36.962 82.396 82.396 0 45.433-36.962 82.396-82.396 82.396s-82.396-36.962-82.396-82.396c0-9.712 1.672-19.217 4.969-28.252 1.421-3.894-.584-8.201-4.477-9.621z"/></g></g></g></svg>